<?xml version="1.0" standalone="no"?>
<!DOCTYPE svg PUBLIC "-//W3C//DTD SVG 20010904//EN"
 "http://www.w3.org/TR/2001/REC-SVG-20010904/DTD/svg10.dtd">
<svg version="1.0" xmlns="http://www.w3.org/2000/svg"
 width="50.000000pt" height="50.000000pt" viewBox="0 0 50.000000 50.000000"
 preserveAspectRatio="xMidYMid meet">

<g transform="translate(0.000000,50.000000) scale(0.100000,-0.100000)"
fill="#000000" stroke="none">
<path d="M142 469 c-50 -25 -107 -88 -123 -136 -6 -19 -9 -66 -7 -103 4 -81
35 -135 107 -185 40 -28 49 -30 131 -30 82 0 91 2 131 30 24 17 57 50 74 74
28 40 30 49 30 131 0 82 -2 91 -30 131 -17 24 -50 57 -74 74 -37 26 -53 30
-119 33 -63 2 -85 -1 -120 -19z m97 -181 c68 -175 64 -158 37 -158 -18 0 -27
8 -35 30 -9 29 -13 30 -66 30 -53 0 -57 -1 -66 -30 -8 -23 -17 -30 -36 -30
-16 0 -23 4 -20 13 6 14 75 190 88 225 6 14 17 22 33 22 22 0 29 -11 65 -102z
m191 -8 c0 -104 -1 -112 -25 -135 -32 -33 -95 -36 -95 -5 0 14 7 20 23 20 41
0 47 18 47 127 l0 103 25 0 25 0 0 -110z"/>
<path d="M157 295 c-24 -69 -22 -75 18 -75 41 0 43 12 16 79 l-18 44 -16 -48z"/>
</g>
</svg>
